<svg width="20" height="20" viewBox="0 0 20 20" fill="none" xmlns="http://www.w3.org/2000/svg">
<path d="M1.46663 9.99999C1.46663 11.95 1.51747 13.3371 1.68094 14.3679C1.84265 15.3876 2.10334 15.9789 2.46607 16.3962C2.83585 16.8216 3.38729 17.1547 4.31488 17.509C5.00489 17.7726 5.83377 18.0242 6.87003 18.3388C7.24425 18.4524 7.64551 18.5742 8.07704 18.7077C9.61786 19.1845 10.7163 19.286 11.5012 19.1357C12.2386 18.9944 12.7479 18.6229 13.1351 17.9856C13.5461 17.3094 13.827 16.3169 13.9963 14.9499C14.1644 13.5931 14.2145 11.9434 14.2145 9.99999C14.2145 8.05659 14.1644 6.40684 13.9963 5.05013C13.827 3.68311 13.5461 2.69061 13.1351 2.0144C12.7479 1.3771 12.2386 1.00561 11.5012 0.86433C10.7163 0.713976 9.61785 0.815447 8.07703 1.29225C7.64556 1.42577 7.24435 1.54755 6.87017 1.66113C5.83384 1.9757 5.00492 2.22731 4.31488 2.49091C3.38729 2.84526 2.83585 3.17831 2.46607 3.60373C2.10334 4.02105 1.84265 4.61239 1.68094 5.63209C1.51747 6.66284 1.46663 8.04994 1.46663 9.99999Z" stroke="#ABADB3" stroke-width="1.6" stroke-linecap="round" stroke-linejoin="round"/>
<ellipse cx="0.797102" cy="0.8" rx="0.797102" ry="0.8" transform="matrix(-1 0 0 1 11.826 9.33301)" fill="#ABADB3"/>
<path d="M14.2173 17.1988C18.2028 17.1988 18.2028 16.2261 18.2028 10.1283C18.2028 4.03049 18.2028 2.79883 14.2173 2.79883" stroke="#ABADB3" stroke-width="1.6" stroke-linecap="round" stroke-linejoin="round"/>
</svg>
