<svg width="20" height="22" viewBox="0 0 20 22" fill="none" xmlns="http://www.w3.org/2000/svg">
<path d="M5.84308 19.1979C7.8718 20.3993 8.88616 21 10 21C11.1138 21 12.1282 20.3993 14.1569 19.1979L14.8431 18.7915C16.8718 17.5901 17.8862 16.9894 18.4431 16C19 15.0106 19 13.8092 19 11.4063M18.8147 7C18.7326 6.62759 18.6141 6.3038 18.4431 6C17.8862 5.01057 16.8718 4.40987 14.8431 3.20846L14.1569 2.80211C12.1282 1.6007 11.1138 1 10 1C8.88616 1 7.8718 1.6007 5.84308 2.80211L5.15692 3.20846C3.1282 4.40987 2.11384 5.01057 1.55692 6C1 6.98943 1 8.19084 1 10.5937V11.4063C1 13.8092 1 15.0106 1.55692 16C1.78326 16.4021 2.08516 16.74 2.5 17.0802" stroke="#1C274C" stroke-width="1.5" stroke-linecap="round"/>
<circle cx="10" cy="11" r="3" stroke="#1C274C" stroke-width="1.5"/>
</svg>
