<?xml version="1.0" standalone="no"?>
<!DOCTYPE svg PUBLIC "-//W3C//DTD SVG 20010904//EN"
 "http://www.w3.org/TR/2001/REC-SVG-20010904/DTD/svg10.dtd">
<svg version="1.0" xmlns="http://www.w3.org/2000/svg"
 width="100.000000pt" height="100.000000pt" viewBox="0 0 100.000000 100.000000"
 preserveAspectRatio="xMidYMid meet">

<g transform="translate(0.000000,100.000000) scale(0.100000,-0.100000)"
fill="#000000" stroke="none">
<path d="M184 807 c-3 -8 -4 -47 -2 -88 l3 -74 85 0 85 0 0 85 0 85 -83 3
c-63 2 -84 0 -88 -11z m156 -77 l0 -70 -70 0 -70 0 0 70 0 70 70 0 70 0 0 -70z"/>
<path d="M220 730 c0 -46 2 -50 23 -49 16 1 18 2 5 6 -13 3 -18 15 -18 44 0
39 0 39 39 39 37 0 40 -2 44 -32 4 -32 4 -32 5 5 l2 37 -50 0 -50 0 0 -50z"/>
<path d="M414 807 c-3 -8 -4 -47 -2 -88 l3 -74 85 0 85 0 0 85 0 85 -83 3
c-63 2 -84 0 -88 -11z m156 -77 l0 -70 -70 0 -70 0 0 70 0 70 70 0 70 0 0 -70z"/>
<path d="M644 807 c-3 -8 -4 -47 -2 -88 l3 -74 85 0 85 0 0 85 0 85 -83 3
c-63 2 -84 0 -88 -11z m156 -77 l0 -70 -70 0 -70 0 0 70 0 70 70 0 70 0 0 -70z"/>
<path d="M184 577 c-3 -8 -4 -47 -2 -88 l3 -74 85 0 85 0 0 85 0 85 -83 3
c-63 2 -84 0 -88 -11z m156 -77 l0 -70 -70 0 -70 0 0 70 0 70 70 0 70 0 0 -70z"/>
<path d="M414 577 c-3 -8 -4 -47 -2 -88 l3 -74 85 0 85 0 0 85 0 85 -83 3
c-63 2 -84 0 -88 -11z m156 -77 l0 -70 -70 0 -70 0 0 70 0 70 70 0 70 0 0 -70z"/>
<path d="M644 577 c-3 -8 -4 -47 -2 -88 l3 -74 85 0 85 0 0 85 0 85 -83 3
c-63 2 -84 0 -88 -11z m156 -77 l0 -70 -70 0 -70 0 0 70 0 70 70 0 70 0 0 -70z"/>
<path d="M184 347 c-3 -8 -4 -47 -2 -88 l3 -74 85 0 85 0 0 85 0 85 -83 3
c-63 2 -84 0 -88 -11z m156 -77 l0 -70 -70 0 -70 0 0 70 0 70 70 0 70 0 0 -70z"/>
<path d="M414 347 c-3 -8 -4 -47 -2 -88 l3 -74 85 0 85 0 0 85 0 85 -83 3
c-63 2 -84 0 -88 -11z m156 -77 l0 -70 -70 0 -70 0 0 70 0 70 70 0 70 0 0 -70z"/>
<path d="M644 347 c-3 -8 -4 -47 -2 -88 l3 -74 85 0 85 0 0 85 0 85 -83 3
c-63 2 -84 0 -88 -11z m156 -77 l0 -70 -70 0 -70 0 0 70 0 70 70 0 70 0 0 -70z"/>
</g>
</svg>
