<svg width="24" height="25" viewBox="0 0 24 25" fill="none" xmlns="http://www.w3.org/2000/svg">
<path d="M10.125 8.98047C10.125 7.94493 10.9645 7.10547 12 7.10547C13.0355 7.10547 13.875 7.94493 13.875 8.98047C13.875 9.66791 13.505 10.269 12.9534 10.5953C12.478 10.8766 12 11.3032 12 11.8555V13.1055" stroke="#1C274C" stroke-width="1.5" stroke-linecap="round"/>
<circle cx="12" cy="16.1055" r="1" fill="#1C274C"/>
<path d="M7 3.44329C8.47087 2.59244 10.1786 2.10547 12 2.10547C17.5228 2.10547 22 6.58262 22 12.1055C22 17.6283 17.5228 22.1055 12 22.1055C6.47715 22.1055 2 17.6283 2 12.1055C2 10.284 2.48697 8.57634 3.33782 7.10547" stroke="#1C274C" stroke-width="1.5" stroke-linecap="round"/>
</svg>
