<svg width="25" height="24" viewBox="0 0 25 24" fill="none" xmlns="http://www.w3.org/2000/svg">
<path d="M12.5471 2C18.07 2 22.5471 6.47715 22.5471 12C22.5471 13.8214 22.0601 15.5291 21.2093 17M5.54712 4.85857C3.69576 6.67349 2.54712 9.20261 2.54712 12C2.54712 17.5228 7.02427 22 12.5471 22C14.3686 22 16.0763 21.513 17.5471 20.6622" stroke="#1C274C" stroke-width="1.5" stroke-linecap="round"/>
<path d="M5.54712 12C5.54712 13.4872 6.01093 14.8662 6.80181 16M12.5471 5C16.4131 5 19.5471 8.13401 19.5471 12C19.5471 15.866 16.4131 19 12.5471 19C11.4735 19 10.4564 18.7583 9.54712 18.3264" stroke="#1C274C" stroke-width="1.5" stroke-linecap="round"/>
<path d="M12.5471 16C14.7563 16 16.5471 14.2091 16.5471 12C16.5471 9.79086 14.7563 8 12.5471 8" stroke="#1C274C" stroke-width="1.5" stroke-linecap="round"/>
</svg>
