<svg width="24" height="25" viewBox="0 0 24 25" fill="none" xmlns="http://www.w3.org/2000/svg">
<circle cx="12" cy="12.6064" r="2" stroke="#1C274C" stroke-width="1.5"/>
<path d="M12 10.6064C17 10.6064 16.6 22.6064 9 22.6064" stroke="#1C274C" stroke-width="1.5" stroke-linecap="round"/>
<path d="M12.3115 14.6064C7.31152 14.6064 7.71152 2.60645 15.3115 2.60645" stroke="#1C274C" stroke-width="1.5" stroke-linecap="round"/>
<path d="M10.6313 11.3025C14.1669 7.76697 22.3693 16.5351 16.9953 21.9091" stroke="#1C274C" stroke-width="1.5" stroke-linecap="round" stroke-dasharray="2 2"/>
<path d="M13.6802 13.9104C10.1447 17.4459 1.94222 8.67779 7.31623 3.30378" stroke="#1C274C" stroke-width="1.5" stroke-linecap="round" stroke-dasharray="2 2"/>
<path d="M10.8516 14.1306C7.31605 10.5951 16.0842 2.39266 21.4582 7.76667" stroke="#1C274C" stroke-width="1.5" stroke-linecap="round" stroke-dasharray="2 2"/>
<path d="M13.4599 11.0823C16.9955 14.6178 8.22736 22.8202 2.85334 17.4462" stroke="#1C274C" stroke-width="1.5" stroke-linecap="round" stroke-dasharray="2 2"/>
<path d="M10 12.918C10 7.91797 22 8.31797 22 15.918" stroke="#1C274C" stroke-width="1.5" stroke-linecap="round"/>
<path d="M14 12.6064C14 17.6064 2 17.2064 2 9.60645" stroke="#1C274C" stroke-width="1.5" stroke-linecap="round"/>
</svg>
