<svg width="25" height="25" viewBox="0 0 25 25" fill="none" xmlns="http://www.w3.org/2000/svg">
<path d="M14.7789 22.8291H10.7789C7.00769 22.8291 5.12208 22.8291 3.9505 21.6575C2.77893 20.486 2.77893 18.6003 2.77893 14.8291V12.8291C2.77893 9.05787 2.77893 7.17225 3.9505 6.00067C5.12208 4.8291 7.00769 4.8291 10.7789 4.8291H14.7789C18.5502 4.8291 20.4358 4.8291 21.6074 6.00067C22.7789 7.17225 22.7789 9.05787 22.7789 12.8291V14.8291C22.7789 18.6003 22.7789 20.486 21.6074 21.6575C20.9542 22.3107 20.079 22.5997 18.7789 22.7276" stroke="#1C274C" stroke-width="1.5" stroke-linecap="round"/>
<path d="M7.77893 4.8291V3.3291" stroke="#1C274C" stroke-width="1.5" stroke-linecap="round"/>
<path d="M17.7789 4.8291V3.3291" stroke="#1C274C" stroke-width="1.5" stroke-linecap="round"/>
<path d="M22.2789 9.8291H17.4039H11.5289M2.77893 9.8291H6.65393" stroke="#1C274C" stroke-width="1.5" stroke-linecap="round"/>
<path d="M18.7789 17.8291C18.7789 18.3814 18.3312 18.8291 17.7789 18.8291C17.2266 18.8291 16.7789 18.3814 16.7789 17.8291C16.7789 17.2768 17.2266 16.8291 17.7789 16.8291C18.3312 16.8291 18.7789 17.2768 18.7789 17.8291Z" fill="#1C274C"/>
<path d="M18.7789 13.8291C18.7789 14.3814 18.3312 14.8291 17.7789 14.8291C17.2266 14.8291 16.7789 14.3814 16.7789 13.8291C16.7789 13.2768 17.2266 12.8291 17.7789 12.8291C18.3312 12.8291 18.7789 13.2768 18.7789 13.8291Z" fill="#1C274C"/>
<path d="M13.7789 17.8291C13.7789 18.3814 13.3312 18.8291 12.7789 18.8291C12.2266 18.8291 11.7789 18.3814 11.7789 17.8291C11.7789 17.2768 12.2266 16.8291 12.7789 16.8291C13.3312 16.8291 13.7789 17.2768 13.7789 17.8291Z" fill="#1C274C"/>
<path d="M13.7789 13.8291C13.7789 14.3814 13.3312 14.8291 12.7789 14.8291C12.2266 14.8291 11.7789 14.3814 11.7789 13.8291C11.7789 13.2768 12.2266 12.8291 12.7789 12.8291C13.3312 12.8291 13.7789 13.2768 13.7789 13.8291Z" fill="#1C274C"/>
<path d="M8.77893 17.8291C8.77893 18.3814 8.33122 18.8291 7.77893 18.8291C7.22665 18.8291 6.77893 18.3814 6.77893 17.8291C6.77893 17.2768 7.22665 16.8291 7.77893 16.8291C8.33122 16.8291 8.77893 17.2768 8.77893 17.8291Z" fill="#1C274C"/>
<path d="M8.77893 13.8291C8.77893 14.3814 8.33122 14.8291 7.77893 14.8291C7.22665 14.8291 6.77893 14.3814 6.77893 13.8291C6.77893 13.2768 7.22665 12.8291 7.77893 12.8291C8.33122 12.8291 8.77893 13.2768 8.77893 13.8291Z" fill="#1C274C"/>
</svg>
