<svg width="24" height="24" viewBox="0 0 24 24" fill="none" xmlns="http://www.w3.org/2000/svg">
<path d="M9.00003 4.45962C9.91156 4.16968 10.9105 4 12 4C16.1819 4 19.0281 6.49956 20.7251 8.70433C21.5751 9.80853 22 10.3606 22 12C22 13.6394 21.5751 14.1915 20.7251 15.2957C19.0281 17.5004 16.1819 20 12 20C7.81814 20 4.972 17.5004 3.27492 15.2957C2.42499 14.1915 2.00003 13.6394 2.00003 12C2.00003 10.3606 2.42499 9.80853 3.27492 8.70433C3.75615 8.07914 4.32976 7.43025 5.00003 6.82137" stroke="#1C274C" stroke-width="1.5" stroke-linecap="round"/>
<path d="M15 12C15 13.6569 13.6569 15 12 15C10.3432 15 9.00003 13.6569 9.00003 12C9.00003 10.3431 10.3432 9 12 9C13.6569 9 15 10.3431 15 12Z" stroke="#1C274C" stroke-width="1.5"/>
</svg>
