<svg width="25" height="25" viewBox="0 0 25 25" fill="none" xmlns="http://www.w3.org/2000/svg">
<path d="M17.1521 3.46483L17.8009 2.81601C18.8759 1.74102 20.6188 1.74102 21.6938 2.81601C22.7688 3.891 22.7688 5.63391 21.6938 6.7089L21.045 7.35772M17.1521 3.46483C17.1521 3.46483 17.2332 4.84356 18.4497 6.06009C19.6662 7.27662 21.045 7.35772 21.045 7.35772M17.1521 3.46483L11.1872 9.42969C10.7832 9.83371 10.5812 10.0357 10.4075 10.2584C10.2025 10.5212 10.0268 10.8055 9.88347 11.1063C9.76194 11.3613 9.6716 11.6323 9.49092 12.1743L8.91245 13.9098M21.045 7.35772L18.0625 10.3402M15.0801 13.3226C14.6761 13.7266 14.4741 13.9286 14.2513 14.1023C13.9886 14.3073 13.7043 14.483 13.4035 14.6263C13.1485 14.7479 12.8775 14.8382 12.3355 15.0189L10.6 15.5973M10.6 15.5973L9.47712 15.9717C9.21038 16.0606 8.91629 15.9911 8.71747 15.7923C8.51865 15.5935 8.44923 15.2994 8.53814 15.0327L8.91245 13.9098M10.6 15.5973L8.91245 13.9098" stroke="#1C274C" stroke-width="1.5" stroke-linecap="round"/>
<path d="M23.25 12.0098C23.25 11.5956 22.9142 11.2598 22.5 11.2598C22.0858 11.2598 21.75 11.5956 21.75 12.0098H23.25ZM12.5 2.75977C12.9142 2.75977 13.25 2.42398 13.25 2.00977C13.25 1.59555 12.9142 1.25977 12.5 1.25977V2.75977ZM7.87558 20.0227C7.51703 19.8153 7.05823 19.9379 6.85083 20.2964C6.64342 20.6549 6.76594 21.1137 7.12449 21.3211L7.87558 20.0227ZM3.18865 17.3853C3.39606 17.7439 3.85485 17.8664 4.2134 17.659C4.57194 17.4516 4.69446 16.9928 4.48706 16.6342L3.18865 17.3853ZM21.75 12.0098C21.75 17.1184 17.6087 21.2598 12.5 21.2598V22.7598C18.4371 22.7598 23.25 17.9468 23.25 12.0098H21.75ZM12.5 1.25977C6.56297 1.25977 1.75003 6.0727 1.75003 12.0098H3.25003C3.25003 6.90113 7.3914 2.75977 12.5 2.75977V1.25977ZM7.12449 21.3211C8.70643 22.2363 10.5432 22.7598 12.5 22.7598V21.2598C10.814 21.2598 9.23536 20.8093 7.87558 20.0227L7.12449 21.3211ZM1.75003 12.0098C1.75003 13.9666 2.27354 15.8034 3.18865 17.3853L4.48706 16.6342C3.70046 15.2744 3.25003 13.6958 3.25003 12.0098H1.75003Z" fill="#1C274C"/>
</svg>
