<svg width="25" height="24" viewBox="0 0 25 24" fill="none" xmlns="http://www.w3.org/2000/svg">
<path d="M21.0076 9.72255C21.9561 9.18858 22.4304 8.9216 22.69 8.49142C22.9496 8.06124 22.9496 7.54232 22.9496 6.50448V5.81466C22.9496 4.48782 22.9496 3.8244 22.5102 3.4122C22.0709 3 21.3638 3 19.9496 3H5.94958C4.53537 3 3.82826 3 3.38892 3.4122C2.94958 3.8244 2.94958 4.48782 2.94958 5.81466V6.50448C2.94958 7.54232 2.94958 8.06124 3.20919 8.49142C3.46879 8.9216 3.94306 9.18858 4.8916 9.72255L7.80463 11.3624C8.44105 11.7206 8.75925 11.8998 8.9871 12.0976C9.46157 12.5095 9.75366 12.9935 9.88602 13.5872C9.94958 13.8722 9.94958 14.2058 9.94958 14.8729L9.94958 17.5424C9.94958 18.452 9.94958 18.9067 10.2015 19.2613C10.4534 19.6158 10.9009 19.7907 11.7957 20.1406C13.6744 20.875 14.6137 21.2422 15.2816 20.8244C15.9496 20.4066 15.9496 19.4519 15.9496 17.5424V14.8729C15.9496 14.2058 15.9496 13.8722 16.0131 13.5872C16.1455 12.9935 16.4376 12.5095 16.9121 12.0976" stroke="#1C274C" stroke-width="1.5" stroke-linecap="round"/>
</svg>
