<svg width="25" height="25" viewBox="0 0 25 25" fill="none" xmlns="http://www.w3.org/2000/svg">
<path d="M21.4492 7.12402V5.12402C21.4492 4.65937 21.4492 4.42704 21.4108 4.23384C21.253 3.44046 20.6328 2.82027 19.8394 2.66245C19.6462 2.62402 19.4139 2.62402 18.9492 2.62402C18.4846 2.62402 18.2522 2.62402 18.059 2.66245C17.2657 2.82027 16.6455 3.44046 16.4876 4.23384C16.4492 4.42704 16.4492 4.65937 16.4492 5.12402V7.12402C16.4492 7.58868 16.4492 7.82101 16.4876 8.0142C16.6455 8.80759 17.2657 9.42778 18.059 9.58559C18.2522 9.62402 18.4846 9.62402 18.9492 9.62402C19.4139 9.62402 19.6462 9.62402 19.8394 9.58559C20.6328 9.42778 21.253 8.80759 21.4108 8.0142C21.4492 7.82101 21.4492 7.58868 21.4492 7.12402Z" stroke="#1C274C" stroke-width="1.5" stroke-linecap="round"/>
<path d="M8.44922 20.124V18.124C8.44922 17.6594 8.44922 17.427 8.41079 17.2338C8.25298 16.4405 7.63278 15.8203 6.8394 15.6625C6.6462 15.624 6.41387 15.624 5.94922 15.624C5.48456 15.624 5.25224 15.624 5.05904 15.6625C4.26566 15.8203 3.64546 16.4405 3.48765 17.2338C3.44922 17.427 3.44922 17.6594 3.44922 18.124V20.124C3.44922 20.5887 3.44922 20.821 3.48765 21.0142C3.64546 21.8076 4.26566 22.4278 5.05904 22.5856C5.25224 22.624 5.48456 22.624 5.94922 22.624C6.41387 22.624 6.6462 22.624 6.8394 22.5856C7.63278 22.4278 8.25298 21.8076 8.41079 21.0142C8.44922 20.821 8.44922 20.5887 8.44922 20.124Z" stroke="#1C274C" stroke-width="1.5" stroke-linecap="round"/>
<path d="M16.4492 19.124H8.44922" stroke="#1C274C" stroke-width="1.5" stroke-linecap="round"/>
<path d="M16.4492 6.12402H8.44922" stroke="#1C274C" stroke-width="1.5" stroke-linecap="round"/>
<path d="M12.4492 19.124V15.874V14.624M12.4492 6.12402V9.37402V10.624" stroke="#1C274C" stroke-width="1.5" stroke-linecap="round"/>
<path d="M3.44922 5.12402C3.44922 4.65937 3.44922 4.42704 3.48765 4.23384C3.64546 3.44046 4.26566 2.82027 5.05904 2.66245C5.25224 2.62402 5.48456 2.62402 5.94922 2.62402C6.41387 2.62402 6.6462 2.62402 6.8394 2.66245C7.63278 2.82027 8.25298 3.44046 8.41079 4.23384C8.44922 4.42704 8.44922 4.65937 8.44922 5.12402V7.12402C8.44922 7.58868 8.44922 7.82101 8.41079 8.0142C8.25298 8.80759 7.63278 9.42778 6.8394 9.58559C6.6462 9.62402 6.41387 9.62402 5.94922 9.62402C5.48456 9.62402 5.25224 9.62402 5.05904 9.58559C4.26566 9.42778 3.64546 8.80759 3.48765 8.0142" stroke="#1C274C" stroke-width="1.5" stroke-linecap="round"/>
<path d="M21.4492 20.124C21.4492 20.5887 21.4492 20.821 21.4108 21.0142C21.253 21.8076 20.6328 22.4278 19.8394 22.5856C19.6462 22.624 19.4139 22.624 18.9492 22.624C18.4846 22.624 18.2522 22.624 18.059 22.5856C17.2657 22.4278 16.6455 21.8076 16.4876 21.0142C16.4492 20.821 16.4492 20.5887 16.4492 20.124V18.124C16.4492 17.6594 16.4492 17.427 16.4876 17.2338C16.6455 16.4405 17.2657 15.8203 18.059 15.6625C18.2522 15.624 18.4846 15.624 18.9492 15.624C19.4139 15.624 19.6462 15.624 19.8394 15.6625C20.6328 15.8203 21.253 16.4405 21.4108 17.2338" stroke="#1C274C" stroke-width="1.5" stroke-linecap="round"/>
</svg>
