<svg width="25" height="25" viewBox="0 0 25 25" fill="none" xmlns="http://www.w3.org/2000/svg">
<path d="M7.11694 4.76318V3.26318" stroke="#1C274C" stroke-width="1.5" stroke-linecap="round"/>
<path d="M17.1169 4.76318V3.26318" stroke="#1C274C" stroke-width="1.5" stroke-linecap="round"/>
<path d="M9.11694 15.2632L10.6169 13.7632V17.7632" stroke="#1C274C" stroke-width="1.5" stroke-linecap="round" stroke-linejoin="round"/>
<path d="M13.1169 16.7632V14.7632C13.1169 14.2109 13.5647 13.7632 14.1169 13.7632C14.6692 13.7632 15.1169 14.2109 15.1169 14.7632V16.7632C15.1169 17.3155 14.6692 17.7632 14.1169 17.7632C13.5647 17.7632 13.1169 17.3155 13.1169 16.7632Z" stroke="#1C274C" stroke-width="1.5" stroke-linecap="round"/>
<path d="M21.6169 9.76318H16.7419H10.8669M2.11694 9.76318H5.99194" stroke="#1C274C" stroke-width="1.5" stroke-linecap="round"/>
<path d="M14.1169 22.7632H10.1169C6.34571 22.7632 4.46009 22.7632 3.28852 21.5916C2.11694 20.42 2.11694 18.5344 2.11694 14.7632V12.7632C2.11694 8.99195 2.11694 7.10633 3.28852 5.93476C4.46009 4.76318 6.34571 4.76318 10.1169 4.76318H14.1169C17.8882 4.76318 19.7738 4.76318 20.9454 5.93476C22.1169 7.10633 22.1169 8.99195 22.1169 12.7632V14.7632C22.1169 18.5344 22.1169 20.42 20.9454 21.5916C20.2922 22.2448 19.4171 22.5338 18.1169 22.6617" stroke="#1C274C" stroke-width="1.5" stroke-linecap="round"/>
</svg>
