<svg width="25" height="25" viewBox="0 0 25 25" fill="none" xmlns="http://www.w3.org/2000/svg">
<path d="M7.11694 4.38623V2.88623" stroke="#1C274C" stroke-width="1.5" stroke-linecap="round"/>
<path d="M17.1169 4.38623V2.88623" stroke="#1C274C" stroke-width="1.5" stroke-linecap="round"/>
<path d="M9.11694 14.8862L10.6169 13.3862V17.3862" stroke="#1C274C" stroke-width="1.5" stroke-linecap="round" stroke-linejoin="round"/>
<path d="M13.1169 16.3862V14.3862C13.1169 13.8339 13.5647 13.3862 14.1169 13.3862C14.6692 13.3862 15.1169 13.8339 15.1169 14.3862V16.3862C15.1169 16.9385 14.6692 17.3862 14.1169 17.3862C13.5647 17.3862 13.1169 16.9385 13.1169 16.3862Z" stroke="#1C274C" stroke-width="1.5" stroke-linecap="round"/>
<path d="M21.6169 9.38623H16.7419H10.8669M2.11694 9.38623H5.99194" stroke="#1C274C" stroke-width="1.5" stroke-linecap="round"/>
<path d="M14.1169 22.3862H10.1169C6.34571 22.3862 4.46009 22.3862 3.28852 21.2147C2.11694 20.0431 2.11694 18.1575 2.11694 14.3862V12.3862C2.11694 8.61499 2.11694 6.72938 3.28852 5.5578C4.46009 4.38623 6.34571 4.38623 10.1169 4.38623H14.1169C17.8882 4.38623 19.7738 4.38623 20.9454 5.5578C22.1169 6.72938 22.1169 8.61499 22.1169 12.3862V14.3862C22.1169 18.1575 22.1169 20.0431 20.9454 21.2147C20.2922 21.8678 19.4171 22.1569 18.1169 22.2847" stroke="#1C274C" stroke-width="1.5" stroke-linecap="round"/>
</svg>
