<svg id="a" height="24" viewBox="0 0 24 24" width="24" xmlns="http://www.w3.org/2000/svg"><g fill="#3b82f6"><path d="m22.375 18.34839c0-.93091-.63885-1.70624-1.5-1.92926v-2.07074c0-1.37842-1.12109-2.5-2.5-2.5s-2.5 1.12158-2.5 2.5v2.07074c-.86115.22302-1.5.99835-1.5 1.92926v2c0 1.10455.89545 2 2 2h4c1.10455 0 2-.89545 2-2zm-2.5-2h-3v-2c0-.82715.67285-1.5 1.5-1.5s1.5.67285 1.5 1.5z"/><path d="m5.375 9.59839c.41406 0 .75.33594.75.75v6c0 1.86865 1.00586 3.61133 2.62598 4.54785.3584.20752.48047.6665.27344 1.0249-.13965.24023-.3916.37451-.65039.37451-.12695 0-.25586-.03223-.375-.10059-2.08105-1.2041-3.37402-3.44434-3.37402-5.84668v-6c0-.41406.33594-.75.75-.75zm-3 5.07031c.41406 0 .75-.33594.75-.75v-3.29639c0-3.96436 2.97168-7.2627 6.76562-7.5083 1.44922-.09424 2.86914.23584 4.1084.95361.35938.21045.81738.08496 1.02539-.27295.20703-.35889.08496-.81738-.27344-1.0249-1.49805-.86719-3.21094-1.26465-4.95703-1.15283-4.58007.29688-8.16894 4.25244-8.16894 9.00537v3.29639c0 .41406.33594.75.75.75zm8.45605-7.0332c-.80859-.13232-1.62207.09424-2.2373.61768-.61523.52393-.96875 1.2876-.96875 2.09521v4c0 3.55511 2.14081 6.7016 5.33521 8.05316-.3548-.58789-.57013-1.26746-.5799-2.00049-1.98944-1.31317-3.25531-3.56274-3.25531-6.05267v-4c0-.36719.16113-.71436.44043-.95264.28418-.24121.64258-.34277 1.02539-.27979.58984.0957 1.03418.67139 1.03418 1.33936v4.89307c0 .84814.29865 1.65875.81659 2.31555.11401-.64685.38013-1.24042.76788-1.73901-.05005-.18738-.08447-.37921-.08447-.57654v-4.89307c0-1.39551-.98633-2.60742-2.29395-2.81982zm7.54395 2.71289c.25684 0 .50653.02936.75.07581v-.07581c0-1.53809-.40527-3.05078-1.1709-4.37549-.20898-.3584-.66406-.48242-1.02539-.27393-.3584.20752-.48047.6665-.27344 1.0249.63477 1.09668.96973 2.3501.96973 3.62451v.07581c.24347-.04645.49316-.07581.75-.07581zm-2.25.69635v-.48151c0-3.05225-2.27832-5.66064-5.1875-5.93799-2.03027-.19238-3.9502.65723-5.16211 2.27295-.24902.33105-.18164.80127.14941 1.0498.33105.24902.80078.18115 1.0498-.14941.89648-1.19434 2.33398-1.81689 3.82031-1.68018 2.14746.20508 3.83008 2.15723 3.83008 4.44482v2.43793c.28802-.79858.81018-1.48511 1.5-1.95642z" opacity=".3"/></g></svg>