<svg width="25" height="25" viewBox="0 0 25 25" fill="none" xmlns="http://www.w3.org/2000/svg">
<path d="M11.6172 6.3374H8.61719C7.67438 6.3374 7.20297 6.3374 6.91008 6.6303C6.61719 6.92319 6.61719 7.39459 6.61719 8.3374C6.61719 9.28021 6.61719 9.75162 6.91008 10.0445C7.20297 10.3374 7.67438 10.3374 8.61719 10.3374H11.6172C12.56 10.3374 13.0314 10.3374 13.3243 10.0445C13.6172 9.75162 13.6172 9.28021 13.6172 8.3374C13.6172 7.39459 13.6172 6.92319 13.3243 6.6303C13.0314 6.3374 12.56 6.3374 11.6172 6.3374Z" stroke="#1C274C" stroke-width="1.5"/>
<path d="M7.61719 17.3374H12.6172" stroke="#1C274C" stroke-width="1.5" stroke-linecap="round"/>
<path d="M17.6172 22.3374H2.61719" stroke="#1C274C" stroke-width="1.5" stroke-linecap="round"/>
<path d="M20.1172 4.3374L21.3503 5.32387C21.4881 5.43413 21.557 5.48926 21.6197 5.54545C22.2109 6.07547 22.5679 6.81826 22.6125 7.61104C22.6172 7.69509 22.6172 7.78334 22.6172 7.95985V18.8374C22.6172 19.6658 21.9456 20.3374 21.1172 20.3374C20.2888 20.3374 19.6172 19.6658 19.6172 18.8374V18.766C19.6172 17.977 18.9776 17.3374 18.1886 17.3374H16.6172" stroke="#1C274C" stroke-width="1.5" stroke-linecap="round"/>
<path d="M22.6172 8.3374H21.1172C20.2888 8.3374 19.6172 9.00898 19.6172 9.8374V12.2563C19.6172 12.9019 20.0303 13.4751 20.6428 13.6793L22.6172 14.3374" stroke="#1C274C" stroke-width="1.5" stroke-linecap="round"/>
<path d="M16.6172 22.3374V15.3374M3.61719 22.3374V18.3374M3.61719 14.3374V8.3374C3.61719 5.50898 3.61719 4.09476 4.49587 3.21608C5.37455 2.3374 6.78876 2.3374 9.61719 2.3374H10.6172C13.4456 2.3374 14.8598 2.3374 15.7385 3.21608C16.6172 4.09476 16.6172 5.50898 16.6172 8.3374V11.3374" stroke="#1C274C" stroke-width="1.5" stroke-linecap="round"/>
</svg>
