<svg width="25" height="25" viewBox="0 0 25 25" fill="none" xmlns="http://www.w3.org/2000/svg">
<path d="M11.4614 7.66411C11.8414 6.98244 12.0314 6.6416 12.3154 6.6416C12.5995 6.6416 12.7895 6.98244 13.1695 7.66411L13.2678 7.84047C13.3758 8.03418 13.4298 8.13104 13.5139 8.19494C13.5981 8.25885 13.703 8.28257 13.9127 8.33002L14.1036 8.37321C14.8415 8.54017 15.2104 8.62365 15.2982 8.90592C15.386 9.18819 15.1345 9.48232 14.6314 10.0706L14.5013 10.2228C14.3583 10.3899 14.2868 10.4735 14.2547 10.5769C14.2225 10.6803 14.2333 10.7918 14.2549 11.0149L14.2746 11.2179C14.3507 12.0028 14.3887 12.3952 14.1589 12.5697C13.9291 12.7441 13.5836 12.5851 12.8927 12.267L12.714 12.1847C12.5177 12.0943 12.4195 12.0491 12.3154 12.0491C12.2114 12.0491 12.1132 12.0943 11.9169 12.1847L11.7381 12.267C11.0472 12.5851 10.7018 12.7441 10.472 12.5697C10.2422 12.3952 10.2802 12.0028 10.3562 11.2179L10.3759 11.0149C10.3975 10.7918 10.4083 10.6803 10.3762 10.5769C10.344 10.4735 10.2726 10.3899 10.1296 10.2228L9.99946 10.0706C9.4964 9.48232 9.24488 9.18819 9.33266 8.90592C9.42043 8.62365 9.78939 8.54017 10.5273 8.37321L10.7182 8.33002C10.9279 8.28257 11.0327 8.25885 11.1169 8.19494C11.2011 8.13104 11.2551 8.03418 11.3631 7.84047L11.4614 7.66411Z" stroke="#1C274C" stroke-width="1.5"/>
<path d="M7.66654 15.6416L7.02967 17.9646C6.40133 20.2564 6.08716 21.4023 6.5064 22.0297C6.65333 22.2495 6.85043 22.426 7.07915 22.5424C7.73178 22.8747 8.73944 22.3497 10.7548 21.2996C11.4253 20.9502 11.7606 20.7755 12.1169 20.7375C12.2489 20.7234 12.382 20.7234 12.514 20.7375C12.8703 20.7755 13.2055 20.9502 13.8761 21.2996C15.8914 22.3497 16.8991 22.8747 17.5517 22.5424C17.7804 22.426 17.9775 22.2495 18.1245 22.0297C18.5437 21.4023 18.2295 20.2564 17.6012 17.9646L16.9643 15.6416" stroke="#1C274C" stroke-width="1.5" stroke-linecap="round"/>
<path d="M5.81543 7.03852C5.49288 7.84319 5.31543 8.72167 5.31543 9.6416C5.31543 13.5076 8.44944 16.6416 12.3154 16.6416C16.1814 16.6416 19.3154 13.5076 19.3154 9.6416C19.3154 5.77561 16.1814 2.6416 12.3154 2.6416C11.3955 2.6416 10.517 2.81906 9.71234 3.1416" stroke="#1C274C" stroke-width="1.5" stroke-linecap="round"/>
</svg>
