<svg width="24" height="25" viewBox="0 0 24 25" fill="none" xmlns="http://www.w3.org/2000/svg">
<path d="M15 9.12891C15 7.47205 13.6569 6.12891 12 6.12891C10.3431 6.12891 9 7.47205 9 9.12891C9 10.7858 10.3431 12.1289 12 12.1289" stroke="#1C274C" stroke-width="1.5" stroke-linecap="round"/>
<path d="M16.5 20.865C17.0308 21.3401 17.7316 21.6289 18.5 21.6289C20.1569 21.6289 21.5 20.2858 21.5 18.6289C21.5 17.8606 21.2111 17.1597 20.7361 16.6289" stroke="#1C274C" stroke-width="1.5"/>
<path d="M7.5 20.865C6.96924 21.3401 6.26835 21.6289 5.5 21.6289C3.84315 21.6289 2.5 20.2858 2.5 18.6289C2.5 17.8606 2.78885 17.1597 3.26389 16.6289" stroke="#1C274C" stroke-width="1.5"/>
<path d="M12 18.1289V16.1289" stroke="#1C274C" stroke-width="1.5" stroke-linecap="round"/>
<path d="M7 3.46673C8.47087 2.61588 10.1786 2.12891 12 2.12891C17.5228 2.12891 22 6.60606 22 12.1289C22 17.6518 17.5228 22.1289 12 22.1289C6.47715 22.1289 2 17.6518 2 12.1289C2 10.3075 2.48697 8.59977 3.33782 7.12891" stroke="#1C274C" stroke-width="1.5" stroke-linecap="round"/>
</svg>
