<svg width="24" height="25" viewBox="0 0 24 25" fill="none" xmlns="http://www.w3.org/2000/svg">
<path d="M13.9998 20.4238C13.9998 21.5284 13.1043 22.4238 11.9998 22.4238C10.8952 22.4238 9.99976 21.5284 9.99976 20.4238C9.99976 19.3193 10.8952 18.4238 11.9998 18.4238C13.1043 18.4238 13.9998 19.3193 13.9998 20.4238Z" stroke="#1C274C" stroke-width="1.5"/>
<path d="M5.99976 4.42383C5.99976 3.48102 5.99976 3.00961 6.29265 2.71672C6.58554 2.42383 7.05695 2.42383 7.99976 2.42383H15.9998C16.9426 2.42383 17.414 2.42383 17.7069 2.71672C17.9998 3.00961 17.9998 3.48102 17.9998 4.42383C17.9998 5.36664 17.9998 5.83804 17.7069 6.13093C17.414 6.42383 16.9426 6.42383 15.9998 6.42383H7.99976C7.05695 6.42383 6.58554 6.42383 6.29265 6.13093C5.99976 5.83804 5.99976 5.36664 5.99976 4.42383Z" stroke="#1C274C" stroke-width="1.5"/>
<path d="M8.49976 16.9238C8.49976 16.0954 9.17133 15.4238 9.99976 15.4238H13.9998C14.8282 15.4238 15.4998 16.0954 15.4998 16.9238C15.4998 17.7523 14.8282 18.4238 13.9998 18.4238H9.99976C9.17133 18.4238 8.49976 17.7523 8.49976 16.9238Z" stroke="#1C274C" stroke-width="1.5"/>
<path d="M13.9998 15.9238V5.92383" stroke="#1C274C" stroke-width="1.5"/>
<path d="M9.99976 15.9238V6.42383" stroke="#1C274C" stroke-width="1.5"/>
<path d="M7.99976 8.42383L15.9998 10.4238M7.99976 11.9238L15.9998 13.9238" stroke="#1C274C" stroke-width="1.5" stroke-linecap="round"/>
<path d="M19.9998 11.9233L21.9998 11.9233M3.99976 11.9243H1.99976M19.071 14.7239L19.7782 15.4238M4.92847 14.7239L4.22136 15.4238M19.071 9.12379L19.7782 8.42383M4.92847 9.12379L4.22136 8.42383" stroke="#1C274C" stroke-width="1.5" stroke-linecap="round"/>
</svg>
