<svg width="25" height="25" viewBox="0 0 25 25" fill="none" xmlns="http://www.w3.org/2000/svg">
<circle cx="10.9341" cy="6.7583" r="4" stroke="#1C274C" stroke-width="1.5"/>
<path d="M18.9769 13.1239L19.4206 12.5192L19.4206 12.5192L18.9769 13.1239ZM19.9341 9.44965L19.4154 9.99137C19.7054 10.2691 20.1627 10.2691 20.4528 9.99137L19.9341 9.44965ZM20.8912 13.1239L20.4475 12.5192L20.4475 12.5192L20.8912 13.1239ZM19.9341 13.5859L19.9341 14.3359H19.9341L19.9341 13.5859ZM19.4206 12.5192C19.0027 12.2125 18.5422 11.8295 18.1935 11.4264C17.8253 11.0006 17.6841 10.6696 17.6841 10.455H16.1841C16.1841 11.2249 16.6253 11.9062 17.059 12.4076C17.5123 12.9318 18.0732 13.391 18.5333 13.7286L19.4206 12.5192ZM17.6841 10.455C17.6841 9.87898 17.9467 9.62832 18.176 9.54794C18.4263 9.4602 18.8898 9.48816 19.4154 9.99137L20.4528 8.90793C19.6284 8.11858 18.5919 7.81262 17.6797 8.1324C16.7465 8.45953 16.1841 9.35785 16.1841 10.455H17.6841ZM21.3349 13.7286C21.7949 13.391 22.3559 12.9318 22.8092 12.4076C23.2429 11.9062 23.6841 11.2249 23.6841 10.455H22.1841C22.1841 10.6696 22.0429 11.0007 21.6746 11.4264C21.326 11.8296 20.8655 12.2125 20.4475 12.5192L21.3349 13.7286ZM23.6841 10.455C23.6841 9.35784 23.1216 8.45953 22.1884 8.13239C21.2762 7.81262 20.2398 8.11858 19.4154 8.90793L20.4528 9.99137C20.9783 9.48816 21.4419 9.46019 21.6922 9.54794C21.9215 9.62832 22.1841 9.87898 22.1841 10.455H23.6841ZM18.5333 13.7286C18.9019 13.999 19.3157 14.3359 19.9341 14.3359L19.9341 12.8359C19.9096 12.8359 19.8946 12.8358 19.8402 12.8071C19.7543 12.7617 19.6469 12.6852 19.4206 12.5192L18.5333 13.7286ZM20.4475 12.5192C20.2213 12.6852 20.1139 12.7617 20.028 12.8071C19.9736 12.8358 19.9585 12.8359 19.9341 12.8359L19.9341 14.3359C20.5525 14.3359 20.9663 13.999 21.3349 13.7286L20.4475 12.5192Z" fill="#1C274C"/>
<path d="M13.9341 21.3734C13.0248 21.6202 12.0077 21.7583 10.9341 21.7583C7.06809 21.7583 3.93408 19.9674 3.93408 17.7583C3.93408 15.5492 7.06809 13.7583 10.9341 13.7583C14.8001 13.7583 17.9341 15.5492 17.9341 17.7583C17.9341 18.1036 17.8575 18.4387 17.7136 18.7583" stroke="#1C274C" stroke-width="1.5" stroke-linecap="round"/>
</svg>
