<svg width="24" height="25" viewBox="0 0 24 25" fill="none" xmlns="http://www.w3.org/2000/svg">
<path d="M22 12.0459C22 15.8171 22 17.7028 20.8284 18.8743C19.6569 20.0459 17.7712 20.0459 14 20.0459H10C6.22876 20.0459 4.34315 20.0459 3.17157 18.8743C2 17.7028 2 15.8171 2 12.0459C2 8.27466 2 6.38904 3.17157 5.21747C4.34315 4.0459 6.22876 4.0459 10 4.0459H14C17.7712 4.0459 19.6569 4.0459 20.8284 5.21747C21.4816 5.87065 21.7706 6.74578 21.8985 8.0459" stroke="#1C274C" stroke-width="1.5" stroke-linecap="round"/>
<path d="M18 8.0459L15.8411 9.84498C14.0045 11.3755 13.0861 12.1408 12 12.1408C11.3507 12.1408 10.7614 11.8673 10 11.3203M6 8.0459L6.9 8.7959L7.8 9.5459" stroke="#1C274C" stroke-width="1.5" stroke-linecap="round"/>
</svg>
