<svg width="25" height="25" viewBox="0 0 25 25" fill="none" xmlns="http://www.w3.org/2000/svg">
<path d="M14.0106 2.0459C14.0106 2.0459 16.2106 2.2459 19.0106 5.0459C21.8106 7.8459 22.0106 10.0459 22.0106 10.0459" stroke="#1C274C" stroke-width="1.5" stroke-linecap="round"/>
<path d="M14.2176 5.58154C14.2176 5.58154 15.2075 5.86439 16.6925 7.34931C18.1774 8.83423 18.4602 9.82418 18.4602 9.82418" stroke="#1C274C" stroke-width="1.5" stroke-linecap="round"/>
<path d="M4.01711 7.97899C3.94477 9.88712 4.42769 13.1276 7.67826 16.3782C8.46247 17.1624 9.24609 17.7855 10.0106 18.2786M5.54836 4.98313C6.94131 3.59018 9.16373 3.77734 10.0481 5.36207L10.6972 6.525C11.2829 7.57448 11.0477 8.95122 10.1253 9.8737C10.1253 9.8737 10.1253 9.8737 10.1253 9.8737C10.1252 9.87382 9.00644 10.9927 11.0351 13.0214C13.063 15.0494 14.1819 13.932 14.1828 13.9312C14.1828 13.9312 14.1828 13.9312 14.1828 13.9312C15.1053 13.0087 16.482 12.7736 17.5315 13.3593L18.6944 14.0083C20.2791 14.8927 20.4663 17.1151 19.0733 18.5081C18.2363 19.3451 17.211 19.9964 16.0775 20.0393C15.2634 20.0702 14.2069 20 13.0106 19.657" stroke="#1C274C" stroke-width="1.5" stroke-linecap="round"/>
</svg>
