<svg width="25" height="25" viewBox="0 0 25 25" fill="none" xmlns="http://www.w3.org/2000/svg">
<path d="M17.5005 12.1389C20.2619 12.1389 22.5005 9.90034 22.5005 7.13892C22.5005 4.37749 20.2619 2.13892 17.5005 2.13892C14.7391 2.13892 12.5005 4.37749 12.5005 7.13892C12.5005 7.93876 12.6883 8.69473 13.0222 9.36515C13.111 9.54331 13.1405 9.74695 13.089 9.93922L12.7912 11.0522C12.662 11.5354 13.104 11.9774 13.5872 11.8482L14.7002 11.5504C14.8925 11.4989 15.0961 11.5284 15.2743 11.6172C15.9447 11.9511 16.7006 12.1389 17.5005 12.1389Z" stroke="#1C274C" stroke-width="1.5"/>
<path d="M17.5005 9.13892L17.5005 5.13892M19.5005 7.13892L15.5005 7.13892" stroke="#1C274C" stroke-width="1.5" stroke-linecap="round"/>
<path d="M14.6012 16.1661L15.145 16.6826V16.6826L14.6012 16.1661ZM15.0567 15.6866L14.5129 15.1701V15.1701L15.0567 15.6866ZM17.4734 15.3512L17.0992 16.0012H17.0992L17.4734 15.3512ZM19.3839 16.4509L19.0097 17.1009L19.3839 16.4509ZM19.9222 19.8973L20.466 20.4139L20.466 20.4139L19.9222 19.8973ZM18.5017 21.3929L17.9579 20.8764L18.5017 21.3929ZM17.1768 22.102L17.2505 22.8484L17.1768 22.102ZM7.31589 17.6141L7.85968 17.0976L7.31589 17.6141ZM3.25234 8.06465C3.23014 7.65104 2.87684 7.33373 2.46322 7.35593C2.0496 7.37813 1.7323 7.73143 1.7545 8.14505L3.25234 8.06465ZM8.69123 9.94399L9.23503 10.4605L8.69123 9.94399ZM8.97805 9.64203L9.52184 10.1585L8.97805 9.64203ZM9.13477 6.83202L9.74717 6.39903L9.13477 6.83202ZM7.87379 5.04853L7.26139 5.48151V5.48151L7.87379 5.04853ZM4.21819 4.23104C3.93292 4.53137 3.94514 5.00609 4.24547 5.29135C4.54579 5.57662 5.02051 5.5644 5.30577 5.26407L4.21819 4.23104ZM10.5637 14.1948L11.1074 13.6783L10.5637 14.1948ZM10.1646 20.9512C10.5153 21.1716 10.9783 21.066 11.1987 20.7153C11.4191 20.3646 11.3134 19.9016 10.9627 19.6812L10.1646 20.9512ZM14.6135 21.1974C14.208 21.1125 13.8106 21.3723 13.7257 21.7777C13.6408 22.1831 13.9006 22.5806 14.306 22.6655L14.6135 21.1974ZM15.145 16.6826L15.6005 16.2031L14.5129 15.1701L14.0575 15.6496L15.145 16.6826ZM17.0992 16.0012L19.0097 17.1009L19.758 15.8009L17.8475 14.7012L17.0992 16.0012ZM19.3784 19.3808L17.9579 20.8764L19.0454 21.9094L20.466 20.4139L19.3784 19.3808ZM7.85968 17.0976C3.98356 13.0168 3.33338 9.57447 3.25234 8.06465L1.7545 8.14505C1.85375 9.99427 2.63893 13.7792 6.7721 18.1306L7.85968 17.0976ZM9.23503 10.4605L9.52184 10.1585L8.43426 9.12551L8.14744 9.42747L9.23503 10.4605ZM9.74717 6.39903L8.48618 4.61555L7.26139 5.48151L8.52238 7.265L9.74717 6.39903ZM8.69123 9.94399C8.14744 9.42747 8.14675 9.4282 8.14605 9.42894C8.14581 9.42919 8.14511 9.42993 8.14464 9.43044C8.14369 9.43145 8.14272 9.43249 8.14174 9.43355C8.13977 9.43566 8.13773 9.43788 8.13563 9.44018C8.13144 9.4448 8.12699 9.44979 8.12231 9.45517C8.11296 9.46592 8.10268 9.47823 8.09169 9.49212C8.06971 9.51989 8.04484 9.55403 8.01875 9.5948C7.96644 9.67656 7.9097 9.78422 7.86166 9.91925C7.76395 10.1938 7.71071 10.5574 7.77724 11.0115C7.90795 11.9036 8.49251 13.1033 10.0199 14.7113L11.1074 13.6783C9.67979 12.1752 9.32814 11.2496 9.26139 10.794C9.22919 10.5743 9.26191 10.4585 9.27485 10.4221C9.28212 10.4017 9.28688 10.396 9.28222 10.4033C9.27997 10.4068 9.27547 10.4134 9.26791 10.423C9.26412 10.4278 9.25957 10.4333 9.25413 10.4395C9.25141 10.4427 9.24847 10.446 9.24529 10.4495C9.2437 10.4512 9.24205 10.453 9.24034 10.4549C9.23949 10.4558 9.23862 10.4567 9.23773 10.4576C9.23729 10.4581 9.23661 10.4588 9.23639 10.4591C9.23571 10.4598 9.23503 10.4605 8.69123 9.94399ZM10.0199 14.7113C11.5427 16.3146 12.6928 16.9449 13.5703 17.0874C14.0206 17.1605 14.3851 17.1021 14.6611 16.9933C14.796 16.9401 14.9027 16.8776 14.9828 16.8208C15.0228 16.7924 15.0561 16.7655 15.083 16.742C15.0964 16.7302 15.1083 16.7192 15.1186 16.7092C15.1237 16.7043 15.1285 16.6995 15.1329 16.6951C15.1351 16.6929 15.1372 16.6907 15.1393 16.6886C15.1403 16.6876 15.1413 16.6866 15.1422 16.6856C15.1427 16.6851 15.1434 16.6843 15.1436 16.6841C15.1443 16.6834 15.145 16.6826 14.6012 16.1661C14.0575 15.6496 14.0581 15.6489 14.0588 15.6482C14.059 15.6479 14.0597 15.6472 14.0602 15.6468C14.0611 15.6458 14.062 15.6449 14.0628 15.644C14.0646 15.6422 14.0663 15.6404 14.068 15.6388C14.0713 15.6354 14.0745 15.6323 14.0775 15.6293C14.0836 15.6235 14.089 15.6185 14.0938 15.6143C14.1034 15.606 14.1105 15.6005 14.1151 15.5973C14.1244 15.5906 14.1235 15.5929 14.1107 15.5979C14.0914 15.6055 14.0005 15.6376 13.8108 15.6068C13.4083 15.5414 12.5396 15.1861 11.1074 13.6783L10.0199 14.7113ZM8.48618 4.61555C7.47259 3.18197 5.44437 2.9401 4.21819 4.23104L5.30577 5.26407C5.82861 4.71363 6.74904 4.75687 7.26139 5.48151L8.48618 4.61555ZM17.9579 20.8764C17.6788 21.1702 17.3869 21.3276 17.1031 21.3556L17.2505 22.8484C17.9975 22.7746 18.6021 22.3762 19.0454 21.9094L17.9579 20.8764ZM9.52184 10.1585C10.4894 9.13987 10.5579 7.5457 9.74717 6.39903L8.52238 7.265C8.94452 7.86206 8.87979 8.65645 8.43426 9.12551L9.52184 10.1585ZM19.0097 17.1009C19.8306 17.5734 19.9912 18.7357 19.3784 19.3808L20.466 20.4139C21.771 19.04 21.3909 16.7408 19.758 15.8009L19.0097 17.1009ZM15.6005 16.2031C15.9859 15.7973 16.5865 15.7061 17.0992 16.0012L17.8475 14.7012C16.749 14.069 15.3867 14.2502 14.5129 15.1701L15.6005 16.2031ZM10.9627 19.6812C9.97895 19.063 8.93198 18.2265 7.85968 17.0976L6.7721 18.1306C7.92612 19.3456 9.06945 20.263 10.1646 20.9512L10.9627 19.6812ZM17.1031 21.3556C16.5566 21.4096 15.6917 21.4231 14.6135 21.1974L14.306 22.6655C15.5546 22.9269 16.5747 22.9151 17.2505 22.8484L17.1031 21.3556Z" fill="#1C274C"/>
</svg>
