<svg width="25" height="25" viewBox="0 0 25 25" fill="none" xmlns="http://www.w3.org/2000/svg">
<path fill-rule="evenodd" clip-rule="evenodd" d="M1.89401 14.7503C1.88023 14.4818 1.65991 14.2692 1.39113 14.2692C1.10747 14.2692 0.880295 14.5078 0.894758 14.7911C1.25106 21.7697 3.37263 23.8913 10.3513 24.2476C10.6346 24.2621 10.8731 24.0349 10.8731 23.7512C10.8731 23.4825 10.6605 23.2621 10.3921 23.2484C9.08162 23.1811 7.97255 23.0511 7.03156 22.842C5.55651 22.5142 4.5565 22.0054 3.84675 21.2956C3.13699 20.5859 2.62822 19.5859 2.3004 18.1108C2.09128 17.1698 1.96126 16.0607 1.89401 14.7503ZM23.8667 14.7503C23.8805 14.4818 24.1008 14.2692 24.3696 14.2692C24.6532 14.2692 24.8804 14.5078 24.8659 14.7911C24.5096 21.7697 22.3881 23.8913 15.4094 24.2476C15.1261 24.2621 14.8875 24.0349 14.8875 23.7512C14.8875 23.4825 15.1001 23.2621 15.3686 23.2484C16.6791 23.1811 17.7881 23.0511 18.7291 22.842C20.2042 22.5142 21.2042 22.0054 21.9139 21.2956C22.6237 20.5859 23.1325 19.5859 23.4603 18.1108C23.6694 17.1698 23.7994 16.0607 23.8667 14.7503ZM24.9235 12.308C24.9236 12.2927 24.9236 12.2774 24.9236 12.262C24.9236 12.2467 24.9236 12.2314 24.9235 12.2161V12.308ZM24.8659 9.73299C24.8804 10.0163 24.6532 10.2548 24.3696 10.2548C24.1008 10.2548 23.8805 10.0422 23.8667 9.7738C23.7994 8.46331 23.6694 7.35423 23.4603 6.41324C23.1325 4.93819 22.6237 3.93818 21.9139 3.22843C21.2042 2.51867 20.2042 2.0099 18.7291 1.68209C17.7881 1.47296 16.6791 1.34294 15.3686 1.27569C15.1001 1.26191 14.8875 1.04159 14.8875 0.772809C14.8875 0.489152 15.1261 0.261976 15.4094 0.276439C22.3881 0.632734 24.5096 2.75431 24.8659 9.73299ZM1.89401 9.7738C1.88023 10.0422 1.65991 10.2548 1.39113 10.2548C1.10747 10.2548 0.880295 10.0163 0.894758 9.73299C1.25106 2.75432 3.37263 0.632741 10.3513 0.276441C10.6346 0.261977 10.8731 0.489153 10.8731 0.772811C10.8731 1.04159 10.6605 1.26192 10.3921 1.27569C9.08162 1.34295 7.97255 1.47296 7.03156 1.68209C5.55651 2.0099 4.5565 2.51867 3.84675 3.22843C3.13699 3.93818 2.62822 4.93819 2.3004 6.41324C2.09128 7.35423 1.96126 8.46331 1.89401 9.7738ZM12.8803 0.218811L12.8993 0.218814H12.8614L12.8803 0.218811Z" fill="#1B74E4"/>
<path d="M7.42303 15.3049C7.42303 15.8961 7.48808 16.3101 7.62261 16.6128C7.74817 16.8953 7.94756 17.111 8.29377 17.2841C8.65774 17.4661 9.18546 17.6009 9.95627 17.6866C10.7225 17.7717 11.6932 17.8049 12.923 17.8049C14.1528 17.8049 15.1235 17.7717 15.8898 17.6866C16.6606 17.6009 17.1883 17.4661 17.5523 17.2841C17.8985 17.111 18.0979 16.8953 18.2235 16.6128C18.358 16.3101 18.423 15.8961 18.423 15.3049C18.423 14.7136 18.358 14.2996 18.2235 13.997C18.0979 13.7145 17.8985 13.4988 17.5523 13.3256C17.1883 13.1437 16.6606 13.0088 15.8898 12.9231C15.1235 12.838 14.1528 12.8049 12.923 12.8049C11.6932 12.8049 10.7225 12.838 9.95627 12.9231C9.18546 13.0088 8.65774 13.1437 8.29377 13.3256C7.94756 13.4988 7.74817 13.7145 7.62261 13.997C7.48808 14.2996 7.42303 14.7136 7.42303 15.3049Z" stroke="#1B74E4" stroke-linecap="round" stroke-linejoin="round"/>
<circle cx="3" cy="3" r="2.5" transform="matrix(-1 0 0 1 15.923 5.30487)" stroke="#1B74E4"/>
</svg>
